<!-- <svg xmlns="http://www.w3.org/2000/svg" class="ionicon" viewBox="0 0 512 512" fill="#fff"><path d="M256 32C132.3 32 32 134.9 32 261.7c0 101.5 64.2 187.5 153.2 217.9a17.56 17.56 0 003.8.4c8.3 0 11.5-6.1 11.5-11.4 0-5.5-.2-19.9-.3-39.1a102.4 102.4 0 01-22.6 2.7c-43.1 0-52.9-33.5-52.9-33.5-10.2-26.5-24.9-33.6-24.9-33.6-19.5-13.7-.1-14.1 1.4-14.1h.1c22.5 2 34.3 23.8 34.3 23.8 11.2 19.6 26.2 25.1 39.6 25.1a63 63 0 0025.6-6c2-14.8 7.8-24.9 14.2-30.7-49.7-5.8-102-25.5-102-113.5 0-25.1 8.7-45.6 23-61.6-2.3-5.8-10-29.2 2.2-60.8a18.64 18.64 0 015-.5c8.1 0 26.4 3.1 56.6 24.1a208.21 208.21 0 01112.2 0c30.2-21 48.5-24.1 56.6-24.1a18.64 18.64 0 015 .5c12.2 31.6 4.5 55 2.2 60.8 14.3 16.1 23 36.6 23 61.6 0 88.2-52.4 107.6-102.3 113.3 8 7.1 15.2 21.1 15.2 42.5 0 30.7-.3 55.5-.3 63 0 5.4 3.1 11.5 11.4 11.5a19.35 19.35 0 004-.4C415.9 449.2 480 363.1 480 261.7 480 134.9 379.7 32 256 32z"/></svg> -->

<svg id="Github" width="90" height="86" viewBox="0 0 90 86" fill="none" xmlns="http://www.w3.org/2000/svg" style="max-width: 100%; max-height: 100%;">
    <path d="M33.75 68.0833C15 73.4583 15 59.125 7.5 57.3333M60 78.8333V64.9658C60.1407 63.2571 59.8991 61.5394 59.2913 59.9269C58.6835 58.3143 57.7235 56.8439 56.475 55.6133C68.25 54.3591 80.625 50.095 80.625 30.53C80.624 25.527 78.6101 20.7159 75 17.0925C76.7095 12.7155 76.5886 7.8774 74.6625 3.58331C74.6625 3.58331 70.2375 2.32915 60 8.88665C51.405 6.66076 42.345 6.66076 33.75 8.88665C23.5125 2.32915 19.0875 3.58331 19.0875 3.58331C17.1614 7.8774 17.0405 12.7155 18.75 17.0925C15.113 20.7428 13.097 25.5974 13.125 30.6375C13.125 50.0591 25.5 54.3233 37.275 55.7208C36.0412 56.939 35.0897 58.3918 34.4824 59.9847C33.8751 61.5775 33.6255 63.2747 33.75 64.9658V78.8333" stroke="white" stroke-width="4" stroke-linecap="round" stroke-linejoin="round" stroke-dasharray="0,0,0,273.5016784667969"><animate attributeType="XML" attributeName="stroke-dasharray" repeatCount="indefinite" dur="3s" values="0,0,0,273.5016784667969; 
0,136.75083923339844,136.75083923339844,0; 
273.5016784667969,0,0,0" keyTimes="0; 0.5; 1" fill="freeze"></animate></path>
</svg>